<svg width="24" height="24" viewBox="0 0 24 24" fill="none" xmlns="http://www.w3.org/2000/svg">
<path fill-rule="evenodd" clip-rule="evenodd" d="M24 8.74505C24 5.67701 21.4885 3.18101 18.4015 3.18101C18.2674 3.18101 18.132 3.18602 17.9959 3.19612C16.6675 1.21188 14.417 0 12 0C9.58313 0 7.3326 1.21212 6.00419 3.19612C5.86811 3.18602 5.73268 3.18101 5.59856 3.18101C2.51147 3.18101 0 5.67701 0 8.74505C0 11.544 2.09071 13.8657 4.80145 14.2515V21.9409C4.80145 23.0764 5.73114 24 6.87393 24H17.1261C18.2689 24 19.1986 23.0763 19.1986 21.9409V14.2515C21.9094 13.8657 24 11.5439 24 8.74505ZM17.1261 22.4161H6.87401C6.61487 22.4161 6.39575 22.1985 6.39575 21.9408V14.2522C7.17675 14.1423 7.91823 13.8706 8.58707 13.4482C9.61298 13.9994 10.7798 14.3088 12 14.3088C13.2202 14.3088 14.3869 13.9994 15.4128 13.4482C16.0819 13.8706 16.8234 14.1423 17.6043 14.2522V21.9408C17.6043 22.1985 17.3853 22.4161 17.1261 22.4161ZM16.8642 12.4206C17.3462 12.6208 17.8649 12.7249 18.4015 12.7249C20.6094 12.7249 22.4058 10.9396 22.4055 8.74505C22.4055 6.55046 20.6093 4.76493 18.4014 4.76493C18.1783 4.76493 17.9485 4.78481 17.7185 4.82392C17.3862 4.88024 17.0538 4.72323 16.8888 4.43119C15.8959 2.67499 14.0226 1.58392 11.9999 1.58392C9.97721 1.58392 8.10392 2.67491 7.1112 4.43111C6.94608 4.72315 6.61357 4.88016 6.28155 4.82392C6.05153 4.78481 5.82175 4.76493 5.59856 4.76493C3.39064 4.76493 1.5943 6.55046 1.5943 8.74505C1.5943 10.9396 3.39056 12.7249 5.59856 12.7249C6.13506 12.7249 6.65375 12.6208 7.13576 12.4206C6.16564 11.5371 5.43222 10.3886 5.06409 9.06877C4.94655 8.64727 5.19512 8.21075 5.61938 8.09398C6.04396 7.97721 6.48302 8.22416 6.60056 8.64566C7.27054 11.0475 9.49081 12.7249 12 12.7249C14.5092 12.7249 16.7295 11.0475 17.3994 8.64566C17.5171 8.22424 17.9563 7.97721 18.3806 8.09398C18.8049 8.21083 19.0534 8.64727 18.9359 9.06877C18.5677 10.3886 17.8344 11.5371 16.8642 12.4206Z" fill="white"/>
</svg>
