<svg width="33" height="48" viewBox="0 0 33 48" fill="none" xmlns="http://www.w3.org/2000/svg">
<path fill-rule="evenodd" clip-rule="evenodd" d="M31.3739 0C28.2568 0 23.6502 14.008 22.0447 28H26.9835V45C26.9835 46.862 28.5551 48 29.9865 48H29.9885C31.6462 48 32.9915 46.656 32.9915 45C32.9955 34.926 33.0095 4.492 32.9895 1.702C32.9835 0.714 32.2688 0 31.3739 0ZM30.9915 2.666L30.9895 45C30.9895 45.552 30.5391 46 29.9865 46C29.6722 46 28.9855 45.748 28.9855 45V26.004H24.3129C25.9145 14.226 29.1117 5.308 30.9915 2.666ZM14.0888 0H12.313L13.6644 12.004L10.9797 12L10.9737 0H8.97171L8.97371 12H6.96572L6.96973 0H4.96774L4.95773 12H2.37317L3.56836 0.004L1.74855 0C1.74855 0 0.525343 10.076 0.0208439 15.15C-0.155331 16.928 0.803619 18.674 2.203 19.794C4.09087 21.306 4.97175 21.758 4.97175 23.14V45C4.97175 46.656 6.30507 48 7.96871 48C9.63436 48 10.9797 46.656 10.9797 45V23.15C10.9797 21.746 11.8466 21.314 13.7464 19.812C15.1739 18.684 16.1889 16.904 15.9907 15.1C15.4401 10.01 14.0888 0 14.0888 0ZM13.8545 14C14.0067 15.316 14.3951 16.75 12.5052 18.244C10.6033 19.75 8.97771 20.676 8.97771 23.15V45C8.97771 45.552 8.52527 46 7.96871 46C7.41016 46 6.97373 45.552 6.97373 45V23.14C6.97373 20.696 5.33411 19.742 3.45625 18.234C1.63244 16.774 2.01682 15.284 2.15095 14H13.8545Z" fill="white"/>
</svg>
