<svg width="101" height="30" viewBox="0 0 101 30" fill="none" xmlns="http://www.w3.org/2000/svg">
<path d="M10.08 26.32C10.6933 26.4533 11.24 26.6267 11.72 26.84C12.2 27.0533 12.6667 27.2667 13.12 27.48V29H0.8V27.48C1.38667 27.16 1.94667 26.92 2.48 26.76C3.01333 26.5733 3.54667 26.4267 4.08 26.32V3.68C2.74667 3.38667 1.65333 3 0.8 2.52V0.999998H5.04C5.57333 0.999998 6.17333 0.986665 6.84 0.959999C7.53333 0.933332 8.25333 0.906666 9 0.88C9.74667 0.826665 10.5067 0.786665 11.28 0.759999C12.0533 0.706666 12.8 0.68 13.52 0.68C14.9867 0.68 16.3333 0.853333 17.56 1.2C18.8133 1.52 19.88 2.01333 20.76 2.68C21.6667 3.34667 22.36 4.18667 22.84 5.2C23.3467 6.18667 23.6 7.34667 23.6 8.68C23.6 10.6 23.1333 12.1733 22.2 13.4C21.2667 14.6267 19.9867 15.5467 18.36 16.16C19.4267 17.84 20.56 19.56 21.76 21.32C22.96 23.0533 24.2267 24.7333 25.56 26.36L27.48 27.64V29H20.8L19.08 27.68C17.8533 26.2133 16.76 24.52 15.8 22.6C14.8667 20.6533 14.04 18.7467 13.32 16.88H10.08V26.32ZM12.08 3.28C11.2533 3.28 10.5867 3.36 10.08 3.52V14.68H12.44C13.8 14.68 14.96 14.2 15.92 13.24C16.88 12.2533 17.36 10.8 17.36 8.88C17.36 7.89333 17.2267 7.05333 16.96 6.36C16.6933 5.64 16.32 5.05333 15.84 4.6C15.36 4.14667 14.8 3.81333 14.16 3.6C13.52 3.38667 12.8267 3.28 12.08 3.28ZM49.7306 0.999998C49.6773 2.2 49.584 3.44 49.4506 4.72C49.3173 6 49.144 7.2 48.9306 8.32H47.2906L45.4506 3.6H37.9706V13.4H42.8506L44.6106 10.32H45.8906C46.024 11.6267 46.0906 13.08 46.0906 14.68C46.0906 16.28 46.024 17.7733 45.8906 19.16H44.6106L42.8506 16H37.9706V26.4H45.7706L47.8906 21.32H49.5306C49.6373 21.8267 49.744 22.4 49.8506 23.04C49.9573 23.68 50.0373 24.3467 50.0906 25.04C50.1706 25.7067 50.224 26.3867 50.2506 27.08C50.304 27.7733 50.3306 28.4133 50.3306 29H28.6906V27.48C29.144 27.24 29.6506 27.0133 30.2106 26.8C30.7706 26.5867 31.3573 26.4267 31.9706 26.32V3.68C31.4373 3.57333 30.864 3.42667 30.2506 3.24C29.664 3.02667 29.144 2.78667 28.6906 2.52V0.999998H49.7306ZM58.3113 25.68C58.6046 25.9733 59.0179 26.2533 59.5513 26.52C60.0846 26.76 60.7913 26.88 61.6713 26.88C63.1379 26.88 64.3513 26.5067 65.3113 25.76C66.2979 24.9867 66.7913 23.92 66.7913 22.56C66.7913 21.5733 66.4713 20.7467 65.8313 20.08C65.2179 19.4133 64.4313 18.8 63.4713 18.24C62.5113 17.68 61.4846 17.1333 60.3913 16.6C59.2979 16.04 58.2713 15.3867 57.3112 14.64C56.3513 13.8933 55.5513 13.0133 54.9113 12C54.2979 10.96 53.9913 9.68 53.9913 8.16C53.9913 6.85333 54.2313 5.72 54.7113 4.76C55.1913 3.8 55.8446 3.01333 56.6713 2.4C57.5246 1.76 58.5246 1.29333 59.6713 0.999998C60.8179 0.679999 62.0579 0.52 63.3913 0.52C65.0179 0.52 66.5246 0.64 67.9113 0.88C69.3246 1.09333 70.5913 1.44 71.7113 1.92C71.6846 2.45333 71.6313 3.06667 71.5513 3.76C71.4979 4.45333 71.4179 5.14667 71.3113 5.84C71.2046 6.50667 71.0846 7.14667 70.9513 7.76C70.8446 8.34667 70.7379 8.84 70.6313 9.24H68.9913L67.1513 3.76C66.8313 3.6 66.3513 3.45333 65.7113 3.32C65.0979 3.18667 64.4579 3.12 63.7912 3.12C62.6713 3.12 61.7246 3.41333 60.9513 4C60.1779 4.58667 59.7913 5.44 59.7913 6.56C59.7913 7.57333 60.1113 8.44 60.7513 9.16C61.3913 9.85333 62.1913 10.4933 63.1513 11.08C64.1113 11.6667 65.1513 12.2533 66.2713 12.84C67.4179 13.4 68.4713 14.0533 69.4313 14.8C70.3913 15.5467 71.1913 16.4267 71.8313 17.44C72.4713 18.4267 72.7913 19.6533 72.7913 21.12C72.7913 23.7867 71.8846 25.8533 70.0713 27.32C68.2846 28.76 65.6446 29.48 62.1513 29.48C61.2979 29.48 60.4313 29.4267 59.5513 29.32C58.6979 29.2133 57.8846 29.0667 57.1113 28.88C56.3379 28.6933 55.6446 28.4933 55.0313 28.28C54.4446 28.0667 54.0046 27.84 53.7113 27.6C53.7379 26.9867 53.8046 26.3333 53.9113 25.64C54.0179 24.92 54.1246 24.2133 54.2313 23.52C54.3646 22.8 54.4979 22.12 54.6313 21.48C54.7646 20.84 54.8979 20.28 55.0313 19.8H56.6713L58.3113 25.68ZM94.5359 29H80.7759V27.48C81.3093 27.2667 81.9093 27.0533 82.5759 26.84C83.2693 26.6 83.9626 26.4267 84.6559 26.32V3.6H80.0159L77.4559 10.44H75.8159C75.7093 9.90667 75.6026 9.22667 75.4959 8.4C75.3893 7.57333 75.2959 6.72 75.2159 5.84C75.1359 4.96 75.0693 4.09333 75.0159 3.24C74.9626 2.36 74.9359 1.61333 74.9359 0.999998H100.376C100.376 1.64 100.349 2.38666 100.296 3.24C100.243 4.09333 100.176 4.96 100.096 5.84C100.016 6.72 99.9226 7.57333 99.8159 8.4C99.7093 9.2 99.6026 9.88 99.4959 10.44H97.8559L95.2959 3.6H90.6559V26.32C91.3493 26.4533 92.0293 26.6133 92.6959 26.8C93.3893 26.9867 94.0026 27.2133 94.5359 27.48V29Z" fill="white"/>
</svg>
